<mxfile host="app.diagrams.net" modified="2022-06-05T09:42:08.659Z" agent="5.0 (X11)" etag="6QPCbMNR_m1t9_CJip3g" version="17.5.0" type="github">
  <diagram id="YFEcOwCTOjRDbSIGVJ3W" name="Page-1">
    <mxGraphModel dx="1673" dy="891" grid="1" gridSize="10" guides="1" tooltips="1" connect="1" arrows="1" fold="1" page="1" pageScale="1" pageWidth="850" pageHeight="1100" math="0" shadow="0">
      <root>
        <mxCell id="0" />
        <mxCell id="1" parent="0" />
        <mxCell id="_GB54zUBxqRpL2csOeIG-9" style="edgeStyle=orthogonalEdgeStyle;rounded=0;orthogonalLoop=1;jettySize=auto;html=1;exitX=1;exitY=0.5;exitDx=0;exitDy=0;exitPerimeter=0;" edge="1" parent="1" source="_GB54zUBxqRpL2csOeIG-1" target="_GB54zUBxqRpL2csOeIG-4">
          <mxGeometry relative="1" as="geometry" />
        </mxCell>
        <mxCell id="_GB54zUBxqRpL2csOeIG-1" value="&lt;b&gt;mobile divice&lt;br&gt;&lt;/b&gt;" style="sketch=0;points=[[0,0,0],[0.25,0,0],[0.5,0,0],[0.75,0,0],[1,0,0],[0,1,0],[0.25,1,0],[0.5,1,0],[0.75,1,0],[1,1,0],[0,0.25,0],[0,0.5,0],[0,0.75,0],[1,0.25,0],[1,0.5,0],[1,0.75,0]];outlineConnect=0;fontColor=#232F3E;gradientColor=#F54749;gradientDirection=north;fillColor=#C7131F;strokeColor=#ffffff;dashed=0;verticalLabelPosition=bottom;verticalAlign=top;align=center;html=1;fontSize=12;fontStyle=0;aspect=fixed;shape=mxgraph.aws4.resourceIcon;resIcon=mxgraph.aws4.mobile;" vertex="1" parent="1">
          <mxGeometry x="130" y="190" width="78" height="78" as="geometry" />
        </mxCell>
        <mxCell id="_GB54zUBxqRpL2csOeIG-8" style="edgeStyle=orthogonalEdgeStyle;rounded=0;orthogonalLoop=1;jettySize=auto;html=1;exitX=0.92;exitY=0.5;exitDx=0;exitDy=0;exitPerimeter=0;" edge="1" parent="1" source="_GB54zUBxqRpL2csOeIG-3" target="_GB54zUBxqRpL2csOeIG-5">
          <mxGeometry relative="1" as="geometry" />
        </mxCell>
        <mxCell id="_GB54zUBxqRpL2csOeIG-3" value="&lt;b&gt;Browser&lt;/b&gt;" style="sketch=0;aspect=fixed;pointerEvents=1;shadow=0;dashed=0;html=1;strokeColor=none;labelPosition=center;verticalLabelPosition=bottom;verticalAlign=top;align=center;fillColor=#00188D;shape=mxgraph.mscae.enterprise.client_application" vertex="1" parent="1">
          <mxGeometry x="122.13" y="100" width="93.75" height="60" as="geometry" />
        </mxCell>
        <mxCell id="_GB54zUBxqRpL2csOeIG-4" value="&lt;b&gt;Load balance&lt;/b&gt;" style="outlineConnect=0;dashed=0;verticalLabelPosition=bottom;verticalAlign=top;align=center;html=1;shape=mxgraph.aws3.classic_load_balancer;fillColor=#F58534;gradientColor=none;" vertex="1" parent="1">
          <mxGeometry x="280" y="193" width="69" height="72" as="geometry" />
        </mxCell>
        <mxCell id="_GB54zUBxqRpL2csOeIG-13" style="edgeStyle=orthogonalEdgeStyle;rounded=0;orthogonalLoop=1;jettySize=auto;html=1;exitX=1;exitY=0.5;exitDx=0;exitDy=0;exitPerimeter=0;" edge="1" parent="1" source="_GB54zUBxqRpL2csOeIG-4" target="_GB54zUBxqRpL2csOeIG-11">
          <mxGeometry relative="1" as="geometry">
            <Array as="points">
              <mxPoint x="360" y="229" />
              <mxPoint x="360" y="200" />
              <mxPoint x="390" y="200" />
              <mxPoint x="390" y="135" />
            </Array>
          </mxGeometry>
        </mxCell>
        <mxCell id="_GB54zUBxqRpL2csOeIG-14" style="edgeStyle=orthogonalEdgeStyle;rounded=0;orthogonalLoop=1;jettySize=auto;html=1;exitX=1;exitY=0.5;exitDx=0;exitDy=0;exitPerimeter=0;" edge="1" parent="1" source="_GB54zUBxqRpL2csOeIG-4" target="_GB54zUBxqRpL2csOeIG-12">
          <mxGeometry relative="1" as="geometry">
            <Array as="points">
              <mxPoint x="420" y="230" />
              <mxPoint x="420" y="230" />
            </Array>
          </mxGeometry>
        </mxCell>
        <mxCell id="_GB54zUBxqRpL2csOeIG-10" style="rounded=0;orthogonalLoop=1;jettySize=auto;html=1;exitX=0.5;exitY=0;exitDx=0;exitDy=0;" edge="1" parent="1" source="_GB54zUBxqRpL2csOeIG-5" target="_GB54zUBxqRpL2csOeIG-4">
          <mxGeometry relative="1" as="geometry" />
        </mxCell>
        <mxCell id="_GB54zUBxqRpL2csOeIG-7" value="&lt;b&gt;Auto Scaling&lt;br&gt;&lt;/b&gt;" style="rounded=0;whiteSpace=wrap;html=1;fillColor=none;" vertex="1" parent="1">
          <mxGeometry x="400" y="90" width="220" height="200" as="geometry" />
        </mxCell>
        <mxCell id="_GB54zUBxqRpL2csOeIG-5" value="&lt;b&gt;Front End Service&lt;br&gt;&lt;/b&gt;" style="rounded=0;whiteSpace=wrap;html=1;fillColor=#d5e8d4;strokeColor=#82b366;" vertex="1" parent="1">
          <mxGeometry x="254.5" y="100" width="120" height="60" as="geometry" />
        </mxCell>
        <mxCell id="_GB54zUBxqRpL2csOeIG-17" style="rounded=0;orthogonalLoop=1;jettySize=auto;html=1;exitX=1;exitY=0.5;exitDx=0;exitDy=0;" edge="1" parent="1" source="_GB54zUBxqRpL2csOeIG-11" target="_GB54zUBxqRpL2csOeIG-15">
          <mxGeometry relative="1" as="geometry" />
        </mxCell>
        <mxCell id="_GB54zUBxqRpL2csOeIG-18" style="edgeStyle=none;rounded=0;orthogonalLoop=1;jettySize=auto;html=1;exitX=1;exitY=0.5;exitDx=0;exitDy=0;" edge="1" parent="1" source="_GB54zUBxqRpL2csOeIG-11" target="_GB54zUBxqRpL2csOeIG-16">
          <mxGeometry relative="1" as="geometry" />
        </mxCell>
        <mxCell id="_GB54zUBxqRpL2csOeIG-11" value="&lt;b&gt;Instance 1&lt;/b&gt;" style="rounded=1;whiteSpace=wrap;html=1;fillColor=#f8cecc;strokeColor=#b85450;" vertex="1" parent="1">
          <mxGeometry x="420" y="101.5" width="180" height="70" as="geometry" />
        </mxCell>
        <mxCell id="_GB54zUBxqRpL2csOeIG-19" style="edgeStyle=none;rounded=0;orthogonalLoop=1;jettySize=auto;html=1;exitX=1;exitY=0.5;exitDx=0;exitDy=0;" edge="1" parent="1" source="_GB54zUBxqRpL2csOeIG-12" target="_GB54zUBxqRpL2csOeIG-15">
          <mxGeometry relative="1" as="geometry" />
        </mxCell>
        <mxCell id="_GB54zUBxqRpL2csOeIG-21" style="edgeStyle=none;rounded=0;orthogonalLoop=1;jettySize=auto;html=1;exitX=1;exitY=0.5;exitDx=0;exitDy=0;" edge="1" parent="1" source="_GB54zUBxqRpL2csOeIG-12" target="_GB54zUBxqRpL2csOeIG-16">
          <mxGeometry relative="1" as="geometry" />
        </mxCell>
        <mxCell id="_GB54zUBxqRpL2csOeIG-12" value="&lt;b&gt;Instance 2&lt;br&gt;&lt;/b&gt;" style="rounded=1;whiteSpace=wrap;html=1;fillColor=#f8cecc;strokeColor=#b85450;" vertex="1" parent="1">
          <mxGeometry x="420" y="210" width="180" height="70" as="geometry" />
        </mxCell>
        <mxCell id="_GB54zUBxqRpL2csOeIG-15" value="&lt;b&gt;S3&lt;br&gt;&lt;/b&gt;" style="outlineConnect=0;dashed=0;verticalLabelPosition=bottom;verticalAlign=top;align=center;html=1;shape=mxgraph.aws3.s3;fillColor=#E05243;gradientColor=none;" vertex="1" parent="1">
          <mxGeometry x="663.5" y="83.5" width="76.5" height="93" as="geometry" />
        </mxCell>
        <mxCell id="_GB54zUBxqRpL2csOeIG-16" value="&lt;b&gt;RSD&lt;/b&gt;" style="outlineConnect=0;dashed=0;verticalLabelPosition=bottom;verticalAlign=top;align=center;html=1;shape=mxgraph.aws3.rds_db_instance_read_replica;fillColor=#2E73B8;gradientColor=none;" vertex="1" parent="1">
          <mxGeometry x="677" y="224" width="49.5" height="66" as="geometry" />
        </mxCell>
        <mxCell id="_GB54zUBxqRpL2csOeIG-22" value="&lt;b&gt;Back End Service&lt;br&gt;&lt;/b&gt;" style="text;html=1;align=center;verticalAlign=middle;resizable=0;points=[];autosize=1;strokeColor=none;fillColor=none;" vertex="1" parent="1">
          <mxGeometry x="390" y="70" width="120" height="20" as="geometry" />
        </mxCell>
      </root>
    </mxGraphModel>
  </diagram>
</mxfile>
